<svg width="580" height="400" xmlns="http://www.w3.org/2000/svg">
 <!-- Created with Liveweave.com -->
 <g>
  <title>background</title>
  <rect fill="#fff" id="canvas_background" height="402" width="582" y="-1" x="-1"/>
  <g display="none" overflow="visible" y="0" x="0" height="100%" width="100%" id="canvasGrid">
   <rect fill="url(#gridpattern)" stroke-width="0" y="0" x="0" height="100%" width="100%"/>
  </g>
 </g>
 <g>
  <title>Layer 1</title>
  <text font-style="normal" font-weight="bold" stroke="#000" transform="matrix(2.9592468695744563,0,0,3.050796532398749,-580.6648463126677,-495.12729393216654) " xml:space="preserve" text-anchor="start" font-family="'Courier New', Courier, monospace" font-size="24" id="svg_3" y="245.942629" x="278.832962" fill-opacity="null" stroke-opacity="null" stroke-width="0" fill="#000000">FG</text>
  <path stroke="#000" id="svg_4" d="m271.093662,200.967469c-0.626872,-1.183218 -1.393806,-2.141157 -2.163095,-2.811272c-0.897639,0.686872 -1.990916,1.105126 -3.182799,1.105126c-1.194224,0 -2.289073,-0.419069 -3.18513,-1.105126c-0.769287,0.670115 -1.537004,1.628054 -2.165415,2.811272c-1.458761,2.747093 -1.619189,5.56491 -0.359228,6.295532c0.564264,0.329122 1.155886,0.083813 1.767099,-0.531519c-0.107215,0.623908 -0.169827,1.300144 -0.169827,2.007467c0,3.142458 1.168417,5.68798 2.608364,5.68798c0.867905,0 1.297543,-0.926882 1.504137,-2.346008c0.205832,1.419126 0.635467,2.346008 1.500226,2.346008c1.442313,0 2.610742,-2.545522 2.610742,-5.68798c0,-0.707325 -0.062632,-1.383559 -0.172178,-2.007467c0.612764,0.615332 1.203608,0.860641 1.769438,0.531519c1.259185,-0.730622 1.096388,-3.54844 -0.362332,-6.295532l-0.000001,0zm-5.347435,-2.778158c2.422881,0 4.387964,-2.053257 4.387964,-4.586103s-1.965083,-4.586108 -4.387964,-4.586108c-2.423705,0 -4.39034,2.053665 -4.39034,4.586108s1.966635,4.586103 4.39034,4.586103z" fill-opacity="null" stroke-opacity="null" stroke-width="0" fill="#000000"/>
  <path id="svg_6" d="m160.081951,197.581967" opacity="0.5" fill-opacity="null" stroke-opacity="null" stroke-width="0" stroke="#000" fill="#000000"/>
  <path stroke="#000" id="svg_7" d="m-101.709423,171.215195c0.278638,-0.062859 0.619532,-0.113749 0.961473,-0.149349c0.398991,0.03649 0.884941,0.05871 1.41472,0.05871c0.53082,0 1.017468,-0.022263 1.415756,-0.05871c0.34194,0.0356 0.683182,0.086491 0.962504,0.149349c0.648404,0.14594 0.719712,0.295636 0.159673,0.334451c-0.250809,0.017485 -0.513779,0.004453 -0.785456,-0.028237c0.047656,0.033145 0.075486,0.06907 0.075486,0.106647c0,0.166943 -0.519349,0.302175 -1.15939,0.302175c-0.385774,0 -0.576744,-0.049241 -0.668573,-0.124632c-0.09149,0.075391 -0.282458,0.124632 -0.666834,0.124632c-0.641093,0 -1.160447,-0.135231 -1.160447,-0.302175c0,-0.037577 0.027839,-0.073502 0.076531,-0.106647c-0.272367,0.03269 -0.534991,0.045722 -0.786496,0.028237c-0.559694,-0.038814 -0.487333,-0.188511 0.161053,-0.334451l0,0zm2.376878,-0.14759c-1.076945,0 -1.950403,-0.109079 -1.950403,-0.243637s0.873458,-0.243638 1.950403,-0.243638c1.077311,0 1.951459,0.109101 1.951459,0.243638s-0.874148,0.243637 -1.951459,0.243637z" fill-opacity="null" stroke-opacity="null" stroke-width="0" fill="#000000"/>
  <path id="svg_8" d="m-102.281589,162.243874c-0.034797,-0.062859 -0.077369,-0.113749 -0.120071,-0.149349c-0.049827,0.03649 -0.110514,0.05871 -0.176674,0.05871c-0.06629,0 -0.127064,-0.022263 -0.176803,-0.05871c-0.042702,0.0356 -0.085318,0.086491 -0.1202,0.149349c-0.080974,0.14594 -0.08988,0.295636 -0.01994,0.334451c0.031322,0.017485 0.064162,0.004453 0.09809,-0.028237c-0.005951,0.033145 -0.009427,0.06907 -0.009427,0.106647c0,0.166943 0.064858,0.302175 0.144788,0.302175c0.048176,0 0.072025,-0.049241 0.083493,-0.124632c0.011425,0.075391 0.035274,0.124632 0.083276,0.124632c0.080061,0 0.14492,-0.135231 0.14492,-0.302175c0,-0.037577 -0.003477,-0.073502 -0.009557,-0.106647c0.034014,0.03269 0.066811,0.045722 0.09822,0.028237c0.069896,-0.038814 0.060859,-0.188511 -0.020113,-0.334451l0,0zm-0.296831,-0.14759c0.134492,0 0.243571,-0.109079 0.243571,-0.243637s-0.10908,-0.243638 -0.243571,-0.243638c-0.134537,0 -0.243703,0.109101 -0.243703,0.243638s0.109166,0.243637 0.243703,0.243637z" fill-opacity="null" stroke-opacity="null" stroke-width="0" stroke="#000" fill="#000000"/>
  <path id="svg_9" d="m-173.224795,203.588773c-0.07836,-0.038168 -0.174227,-0.06907 -0.270389,-0.090686c-0.112206,0.022157 -0.248866,0.035649 -0.397853,0.035649c-0.149279,0 -0.286136,-0.013518 -0.398144,-0.035649c-0.096162,0.021617 -0.192127,0.052518 -0.270679,0.090686c-0.182346,0.088616 -0.2024,0.179513 -0.044904,0.203082c0.070533,0.010617 0.144487,0.002704 0.220889,-0.017146c-0.013402,0.020126 -0.021228,0.04194 -0.021228,0.064757c0,0.10137 0.146053,0.183483 0.326048,0.183483c0.108489,0 0.162194,-0.029899 0.188018,-0.075678c0.025729,0.045778 0.079434,0.075678 0.18753,0.075678c0.18029,0 0.326345,-0.082114 0.326345,-0.183483c0,-0.022817 -0.007829,-0.044631 -0.021522,-0.064757c0.076596,0.019849 0.150452,0.027763 0.221181,0.017146c0.157399,-0.023568 0.13705,-0.114466 -0.045292,-0.203082l0,0zm-0.668434,-0.089618c0.302862,0 0.548499,-0.066234 0.548499,-0.147939s-0.245637,-0.147939 -0.548499,-0.147939c-0.302965,0 -0.548796,0.066247 -0.548796,0.147939s0.245831,0.147939 0.548796,0.147939z" fill-opacity="null" stroke-opacity="null" stroke-width="0" stroke="#000" fill="#000000"/>
  <path id="svg_10" d="m-31.313179,165.714547c-0.034797,-0.062859 -0.077369,-0.113749 -0.120071,-0.149349c-0.049827,0.03649 -0.110514,0.05871 -0.176674,0.05871c-0.06629,0 -0.127064,-0.022263 -0.176803,-0.05871c-0.042702,0.0356 -0.085318,0.086491 -0.1202,0.149349c-0.080974,0.14594 -0.08988,0.295636 -0.01994,0.334451c0.031322,0.017485 0.064162,0.004453 0.09809,-0.028237c-0.005951,0.033145 -0.009427,0.06907 -0.009427,0.106647c0,0.166943 0.064858,0.302175 0.144788,0.302175c0.048176,0 0.072025,-0.049241 0.083493,-0.124632c0.011425,0.075391 0.035274,0.124632 0.083276,0.124632c0.080061,0 0.14492,-0.135231 0.14492,-0.302175c0,-0.037577 -0.003477,-0.073502 -0.009557,-0.106647c0.034014,0.03269 0.066811,0.045722 0.09822,0.028237c0.069896,-0.038814 0.060859,-0.188511 -0.020113,-0.334451l0,0zm-0.296831,-0.14759c0.134492,0 0.243571,-0.109079 0.243571,-0.243637s-0.10908,-0.243638 -0.243571,-0.243638c-0.134537,0 -0.243703,0.109101 -0.243703,0.243638s0.109166,0.243637 0.243703,0.243637z" fill-opacity="null" stroke-opacity="null" stroke-width="0" stroke="#000" fill="#000000"/>
  <path stroke="#000" id="svg_18" d="m314.500258,264.703737c-0.62687,-1.18322 -1.39381,-2.14116 -2.1631,-2.81127c-0.89764,0.68687 -1.99091,1.10512 -3.1828,1.10512c-1.19422,0 -2.28907,-0.41906 -3.18513,-1.10512c-0.76928,0.67011 -1.537,1.62805 -2.16541,2.81127c-1.45876,2.74709 -1.61919,5.56491 -0.35923,6.29553c0.56426,0.32912 1.15589,0.08382 1.7671,-0.53152c-0.10722,0.62391 -0.16983,1.30015 -0.16983,2.00747c0,3.14246 1.16842,5.68798 2.60837,5.68798c0.8679,0 1.29754,-0.92688 1.50413,-2.34601c0.20584,1.41913 0.63547,2.34601 1.50023,2.34601c1.44231,0 2.61074,-2.54552 2.61074,-5.68798c0,-0.70732 -0.06263,-1.38356 -0.17218,-2.00747c0.61277,0.61534 1.20361,0.86064 1.76944,0.53152c1.25919,-0.73062 1.09639,-3.54844 -0.36233,-6.29553l0,0zm-5.34744,-2.77816c2.42289,0 4.38797,-2.05325 4.38797,-4.5861s-1.96508,-4.58611 -4.38797,-4.58611c-2.4237,0 -4.39034,2.05367 -4.39034,4.58611s1.96664,4.5861 4.39034,4.5861z" fill-opacity="null" stroke-opacity="null" stroke-width="0" fill="#000000"/>
 </g>
</svg>